<?xml version="1.0" ?><svg id="Layer_1" style="enable-background:new 0 0 64 64;" version="1.1" viewBox="0 0 64 64" xml:space="preserve" xmlns="http://www.w3.org/2000/svg" xmlns:xlink="http://www.w3.org/1999/xlink"><style type="text/css">
	.st0{fill:#ABB8FF;}
	.st1{fill:#7289DA;}
	.st2{fill:#314A52;}
	.st3{fill-rule:evenodd;clip-rule:evenodd;fill:#FFFFFF;}
	.st4{fill:#ACBDC5;}
</style><g id="Discord"><rect class="st0" height="45" width="50" x="7" y="3"/><path class="st1" d="M12,0C7.6,0,4,3.6,4,8v40c0,4.4,3.6,8,8,8h36.6l-0.8-3H52l5,5V20h-1c0,10.2-7.9,18.9-19.1,22.4   c-3,1-6.8,1.6-10.9,1.6c-9.9,0-18-3.6-18-8V8c0-2.2,1.8-4,4-4h12V0H12z"/><path class="st2" d="M47.9,53.2L60,64V8c0-4.4-3.6-8-8-8H20v4h32c2.2,0,4,1.8,4,4v47.1l-9.9-8.8L47.9,53.2z"/><path class="st3" d="M37,34c1.7,0,3-1.3,3-3c0-1.7-1.3-3-3-3c-1.7,0-3,1.3-3,3C34,32.7,35.3,34,37,34z M27,34c1.7,0,3-1.3,3-3   c0-1.7-1.3-3-3-3c-1.7,0-3,1.3-3,3C24,32.7,25.3,34,27,34z M32,16.6c-5.9,0-10.9,1.8-12.7,2.7c1.1-1.1,3.6-2.8,5.3-3.2   c2.1-0.5,2.6-1.1,1.6-1.1c-1.1,0-3.7,0-7.9,2.7C15.1,22.6,13,33.9,13,36.6c1.3,2.2,6.3,4.9,10,5.4l2.1-2.7   c-0.7-0.4-2.4-1.3-3.7-2.2s-1.6-1.8-1.6-2.2c1.6,1.3,6.2,3.8,12.1,3.8c5.9,0,10.6-2.5,12.1-3.8c0,0.4-0.3,1.3-1.6,2.2   s-3,1.8-3.7,2.2l1.6,2C43,40.5,49,37.5,50.7,34c-0.7-4.5-2.5-12.4-5-16.3C41.5,15,38.9,15,37.8,15s-0.5,0.5,1.6,1.1   c1.7,0.4,4.2,2.2,5.3,3.2C42.9,18.4,37.9,16.6,32,16.6z"/><path class="st4" d="M50.7,33.6c-2.7,3.1-6.2,5.7-10.4,7.5L41,42c3.7-0.5,8.8-3.2,10-5.4C51,36,50.9,34.9,50.7,33.6z"/></g></svg>