<?xml version="1.0" ?><svg id="Layer_1" style="enable-background:new 0 0 64 64;" version="1.1" viewBox="0 0 64 64" xml:space="preserve" xmlns="http://www.w3.org/2000/svg" xmlns:xlink="http://www.w3.org/1999/xlink"><style type="text/css">
	.st0{fill:#FF9533;}
	.st1{fill:#FF4137;}
	.st2{fill:#314A52;}
</style><g id="SoundCloud"><path class="st0" d="M34,45.4c1.3,0.4,2.6,0.6,4,0.6c7.7,0,14-6.3,14-14c0-7.7-6.3-14-14-14c-1.4,0-2.7,0.2-4,0.6V45.4z"/><path class="st1" d="M36,40c7.8,0,14.1-3.4,14.1-7.5c0-0.2,0-0.3,0-0.5L61,31v14l-7,3H34c-1.1,0-2-0.9-2-2V18.6   c0-0.9,0.6-1.7,1.4-1.9c1.5-0.4,3-0.7,4.6-0.7v4c-0.7,0-1.4,0.1-2,0.2V40z M20,26c0-1.1-0.9-2-2-2s-2,0.9-2,2v20c0,1.1,0.9,2,2,2   s2-0.9,2-2V26z M28,26c0-1.1-0.9-2-2-2c-1.1,0-2,0.9-2,2v20c0,1.1,0.9,2,2,2c1.1,0,2-0.9,2-2V26z M12,30c0-1.1-0.9-2-2-2   c-1.1,0-2,0.9-2,2v16c0,1.1,0.9,2,2,2c1.1,0,2-0.9,2-2V30z M4,34c0-1.1-0.9-2-2-2c-1.1,0-2,0.9-2,2v8c0,1.1,0.9,2,2,2   c1.1,0,2-0.9,2-2V34z"/><path class="st2" d="M36,20.2c0.6-0.1,1.3-0.2,2-0.2c6.1,0,11.2,4.6,11.9,10.5l0.3,2.3l2.2-0.6c0.5-0.1,1-0.2,1.6-0.2   c3.3,0,6,2.7,6,6c0,3.3-2.7,6-6,6h-2v4h2c5.5,0,10-4.5,10-10c0-5.5-4.5-10-10-10c-0.2,0-0.3,0-0.5,0c-1.8-6.9-8-12-15.5-12   c-0.7,0-1.3,0-2,0.1V20.2z"/></g></svg>