<?xml version="1.0" ?><svg id="Layer_1" style="enable-background:new 0 0 64 64;" version="1.1" viewBox="0 0 64 64" xml:space="preserve" xmlns="http://www.w3.org/2000/svg" xmlns:xlink="http://www.w3.org/1999/xlink"><style type="text/css">
	.st0{fill:#FF6C58;}
	.st1{fill:#FFFFFF;}
	.st2{fill:#FF0000;}
	.st3{fill-rule:evenodd;clip-rule:evenodd;fill:#314A52;}
</style><g id="Youtube"><path class="st0" d="M2,32c0-9.3,0-13.9,2.8-17.2c0.4-0.4,0.8-0.9,1.3-1.3c3.2-2.9,7.6-3,16.4-3.3c3-0.1,6.2-0.2,9.6-0.2   s6.5,0.1,9.6,0.2c8.8,0.3,13.2,0.4,16.4,3.3c0.4,0.4,0.9,0.9,1.3,1.3C62,18.1,62,22.8,62,32c0,9.3,0,13.9-2.8,17.2   c-0.4,0.4-0.8,0.9-1.3,1.3c-3.2,2.9-7.6,3-16.4,3.3c-3,0.1-6.2,0.2-9.6,0.2s-6.5-0.1-9.6-0.2C13.7,53.5,9.3,53.4,6,50.5   c-0.4-0.4-0.9-0.9-1.3-1.3C2,45.9,2,41.3,2,32z"/><polygon class="st1" points="24,42 24,22 43,32  "/><path class="st2" d="M17.9,8.3C12,8.6,7.9,9.1,4.7,12c-0.5,0.5-1,1-1.5,1.5c-1.7,2.1-2.5,4.5-2.9,7.4C0,23.8,0,27.4,0,31.9v0.3   c0,4.5,0,8.1,0.4,10.9c0.4,2.9,1.2,5.3,2.9,7.4c0.4,0.5,1,1.1,1.5,1.5c2,1.8,4.3,2.6,7.1,3.1c2.7,0.5,6.1,0.6,10.4,0.7l0.1,0   c3,0.1,6.3,0.2,9.6,0.2s6.6-0.1,9.6-0.2l0.1,0c3.4-0.1,6.2-0.2,8.5-0.5L61,48V24h-1.1c0,0.2,0,0.3,0,0.5   c0,12.9-15.8,23.3-35.4,23.5c-0.2,0-0.3,0-0.5,0h0l-0.1,0c-10.5,0-19.1-3.3-19.8-7.5C4,38.2,4,35.5,4,32c0-4.7,0-8,0.3-10.6   c0.3-2.5,0.9-4.1,2-5.4C6.6,15.7,7,15.3,7.4,15c2-1.8,4.7-2.4,10.7-2.6L17.9,8.3z"/><path class="st3" d="M32,12c-3.3,0-6.5,0.1-9.5,0.2c-2.4,0.1-4.5,0.1-6.2,0.3l-0.3-4c1.8-0.1,3.9-0.2,6.3-0.3l0,0   C25.4,8.1,28.7,8,32,8s6.6,0.1,9.6,0.2l0.1,0c4.3,0.1,7.7,0.3,10.4,0.7c2.8,0.5,5.1,1.3,7.1,3.1c0.5,0.5,1,1,1.5,1.5   c1.7,2.1,2.5,4.5,2.9,7.4C64,23.8,64,27.4,64,31.9v0.3c0,4.5,0,8.1-0.4,10.9c-0.4,2.9-1.2,5.3-2.9,7.4c-0.4,0.5-1,1.1-1.5,1.5   c-2.8,2.5-6.3,3.2-11,3.5l-0.3-4c4.6-0.3,6.9-1,8.6-2.5c0.4-0.3,0.8-0.7,1.1-1.1c1.1-1.3,1.7-2.8,2-5.4C60,40,60,36.7,60,32   s0-8-0.3-10.6c-0.3-2.5-0.9-4.1-2-5.4c-0.3-0.4-0.7-0.8-1.1-1.1c-1.2-1.1-2.8-1.8-5.1-2.1c-2.4-0.4-5.6-0.5-10-0.7   C38.5,12.1,35.3,12,32,12z"/></g></svg>