<?xml version="1.0" standalone="no"?>
<!DOCTYPE svg PUBLIC "-//W3C//DTD SVG 20010904//EN"
 "http://www.w3.org/TR/2001/REC-SVG-20010904/DTD/svg10.dtd">
<svg version="1.0" xmlns="http://www.w3.org/2000/svg"
 width="128.000000pt" height="128.000000pt" viewBox="0 0 128.000000 128.000000"
 preserveAspectRatio="xMidYMid meet">
<metadata>
Created by potrace 1.14, written by Peter Selinger 2001-2017
</metadata>
<g transform="translate(0.000000,128.000000) scale(0.100000,-0.100000)"
fill="#000000" stroke="none">
<path d="M210 1179 c-53 -16 -88 -55 -100 -113 -8 -34 -10 -183 -8 -456 3
-444 3 -441 65 -490 23 -18 38 -21 85 -18 102 7 128 53 128 221 l0 115 128 4
c113 4 134 7 190 33 76 34 152 113 177 182 26 74 31 197 11 269 -33 113 -121
206 -230 240 -62 20 -391 29 -446 13z m339 -274 c35 -18 55 -64 48 -111 -11
-66 -57 -94 -157 -94 l-60 0 0 110 0 110 70 0 c43 0 82 -6 99 -15z"/>
<path d="M1004 391 c-152 -93 -65 -320 110 -287 136 26 160 226 36 288 -46 23
-107 23 -146 -1z"/>
</g>
</svg>
