<svg id="Capa_1" enable-background="new 0 0 512 512" height="512" viewBox="0 0 512 512" width="512" xmlns="http://www.w3.org/2000/svg"><g><g><path d="m256 7.5c-21.276 45.283-120.033 23.138-120.033 128.467h220.065c15.924-33.155-.632-64.234-25.854-83.569-28.856-15.682-62.731-20.533-74.178-44.898z" fill="#e4a4ad"/><path d="m330.178 52.398c15.333 16.391 25.854 38.674 25.854 83.569h20c.001-48.657-21.078-70.104-45.854-83.569z" fill="#e27f86"/><path d="m484.94 256c-15.394-11.859-24.124-71.889-52.739-105.614-13.255-8.815-31.095-14.419-56.168-14.419v220.065c78.513 28.514 80.593-78.22 108.907-100.032z" fill="#e4a4ad"/><path d="m432.201 150.386c22.355 37.555 26.865 87.655 40.216 103.188 1.207 1.404 1.14 3.49-.187 4.782-25.224 24.568-21.043 97.677-96.198 97.677v20c105.329 0 83.184-98.757 128.467-120.033-34.503-16.211-29.87-77.398-72.298-105.614z" fill="#e27f86"/><path d="m7.5 256c45.283-21.276 23.138-120.033 128.467-120.033v220.065c-33.155 15.924-64.234-.632-83.569-25.854-15.682-28.856-20.533-62.731-44.898-74.178z" fill="#e4a4ad"/><path d="m52.398 330.178c16.391 15.333 38.674 25.854 83.569 25.854v20c-48.657.001-70.104-21.078-83.569-45.854z" fill="#e27f86"/><path d="m256 484.94c-11.859-15.394-71.889-24.124-105.614-52.739-8.815-13.255-14.419-31.095-14.419-56.168h220.065c28.514 78.513-78.22 80.593-100.032 108.907z" fill="#e4a4ad"/><path d="m150.386 432.201c37.555 22.355 87.655 26.865 103.188 40.216 1.404 1.207 3.49 1.14 4.782-.187 24.568-25.224 97.677-21.043 97.677-96.198h20c0 105.329-98.757 83.184-120.033 128.467-16.211-34.503-77.398-29.87-105.614-72.298z" fill="#e27f86"/><path d="m368.033 368.033c66.292-66.292 59.578-172.302 8-232.065-30.719-30.72-73.157-49.72-120.033-49.72-93.751 0-169.752 76.001-169.752 169.752 0 46.876 19 89.314 49.719 120.033 59.863 49.719 165.774 58.292 232.066-8z" fill="#e27f86"/><path d="m376.033 135.967c43.019 61.437 51.292 158.773-15 225.065s-163.628 58.019-225.065 15c30.719 30.719 73.157 49.719 120.033 49.719 93.751 0 169.752-76.001 169.752-169.752-.001-46.875-19.001-89.313-49.72-120.032z" fill="#df646e"/><path d="m376.033 343.889v-207.922h-240.066v240.065h207.921s18.632-2.488 24.144-8 3.497-18.241 8.001-24.143z" fill="#e4a4ad"/><g fill="#e27f86"><path d="m165.967 184.111 90.033 155.941 90.032-155.941z"/><path d="m361.033 361.033c-5.512 5.512-11.242 10.496-17.144 15h32.144v-32.144c-4.504 5.902-9.489 11.632-15 17.144z"/></g></g><g><path d="m256 512c-2.907 0-5.552-1.68-6.788-4.311-6.646-14.145-23.36-20.915-42.713-28.753-33.541-13.585-74.994-30.369-77.872-95.562-65.194-2.878-81.978-44.331-95.562-77.872-7.839-19.354-14.609-36.068-28.753-42.713-2.632-1.237-4.312-3.882-4.312-6.789s1.68-5.552 4.311-6.788c14.145-6.646 20.915-23.36 28.753-42.713 13.584-33.539 30.375-74.989 95.558-77.872 1.47-34.204 13.477-58.252 37.456-75.293 3.377-2.401 8.059-1.608 10.458 1.769 2.399 3.376 1.608 8.059-1.769 10.458-11.41 8.109-26.012 22.086-30.157 52.554 31.389-25.388 70.941-39.367 111.39-39.367 42.175 0 80.963 14.811 111.427 39.498-6.189-46.423-37.333-59.038-67.556-71.279-17.048-6.905-33.342-13.505-43.871-25.794-10.53 12.289-26.824 18.889-43.873 25.794-3.613 1.463-7.349 2.977-11.02 4.543-3.809 1.625-8.216-.143-9.842-3.953s.143-8.216 3.953-9.842c3.8-1.623 7.602-3.162 11.278-4.651 19.354-7.839 36.07-14.609 42.715-28.754 1.237-2.63 3.882-4.31 6.789-4.31s5.552 1.68 6.788 4.311c6.646 14.145 23.36 20.915 42.713 28.753 33.541 13.585 74.994 30.369 77.872 95.562 65.194 2.878 81.978 44.331 95.562 77.872 7.839 19.354 14.609 36.068 28.753 42.713 2.632 1.237 4.312 3.882 4.312 6.789s-1.68 5.552-4.311 6.788c-14.145 6.646-20.915 23.36-28.753 42.713-13.585 33.541-30.371 74.994-95.565 77.873-1.468 32.712-12.958 56.804-35.001 73.498-3.302 2.501-8.006 1.851-10.507-1.451-2.5-3.302-1.851-8.006 1.451-10.507 10.606-8.032 24.167-21.764 28.102-51.151-30.464 24.687-69.241 39.489-111.416 39.489s-80.963-14.811-111.427-39.498c6.189 46.423 37.333 59.038 67.556 71.279 17.048 6.905 33.341 13.505 43.871 25.793 10.529-12.289 26.823-18.888 43.871-25.793 3.639-1.474 7.401-2.998 11.098-4.578 3.807-1.628 8.216.141 9.844 3.95 1.627 3.809-.141 8.216-3.95 9.844-3.828 1.635-7.657 3.187-11.361 4.687-19.354 7.839-36.068 14.609-42.713 28.753-1.237 2.631-3.882 4.311-6.789 4.311zm-100.199-128.467c27.607 21.736 62.417 34.719 100.199 34.719s72.592-12.983 100.199-34.719zm-12.334-15h225.065v-120.13c0-4.142 3.358-7.5 7.5-7.5s7.5 3.358 7.5 7.5v107.796c21.736-27.607 34.719-62.417 34.719-100.199s-12.983-72.592-34.719-100.199v62.603c0 4.142-3.358 7.5-7.5 7.5s-7.5-3.358-7.5-7.5v-74.936h-225.065zm250.287-223.96c24.688 30.464 39.498 69.251 39.498 111.427s-14.811 80.963-39.498 111.427c46.423-6.189 59.038-37.333 71.279-67.556 6.905-17.048 13.505-33.341 25.793-43.871-12.289-10.529-18.889-26.823-25.793-43.871-12.241-30.223-24.856-61.367-71.279-67.556zm-372.581 111.427c12.289 10.529 18.889 26.823 25.793 43.871 12.241 30.223 24.856 61.367 71.279 67.556-24.686-30.464-39.497-69.252-39.497-111.427 0-4.142 3.358-7.5 7.5-7.5s7.5 3.358 7.5 7.5c0 37.782 12.983 72.592 34.719 100.199v-200.472c-14.874 18.924-25.498 41.034-30.783 64.582-.907 4.041-4.914 6.582-8.96 5.675-4.042-.907-6.583-4.918-5.675-8.96 5.951-26.515 18.091-51.358 35.122-72.44-46.361 6.213-58.97 37.34-71.204 67.546-6.905 17.047-13.505 33.341-25.794 43.87zm134.511-127.533h200.515c-27.607-21.736-62.417-34.719-100.199-34.719-36.325 0-71.857 12.313-100.316 34.719zm100.316 219.085c-2.68 0-5.155-1.43-6.495-3.75l-90.033-155.941c-1.34-2.32-1.34-5.18 0-7.5s3.815-3.75 6.495-3.75h180.065c2.68 0 5.155 1.43 6.495 3.75s1.34 5.18 0 7.5l-90.032 155.941c-1.34 2.32-3.815 3.75-6.495 3.75zm-77.042-155.941 77.042 133.441 77.042-133.441z"/></g></g></svg>